<svg width="130" height="130" viewBox="0 0 130 130" fill="none" xmlns="http://www.w3.org/2000/svg">
<path d="M33.9298 54.7912C33.9118 54.6295 33.7681 54.5576 33.6603 54.5397C33.5526 54.5217 31.3969 54.5037 31.3969 54.5037C31.3969 54.5037 29.5826 52.7433 29.4029 52.5637C29.2233 52.384 28.882 52.4379 28.7383 52.4738C28.7383 52.4738 28.397 52.5816 27.8221 52.7613C27.7323 52.4559 27.5886 52.0786 27.391 51.7014C26.7443 50.4619 25.8102 49.8152 24.6605 49.8152C24.5886 49.8152 24.4988 49.8152 24.427 49.8332C24.391 49.7972 24.3551 49.7613 24.3192 49.7074C23.8162 49.1685 23.1875 48.917 22.433 48.935C20.96 48.9709 19.5049 50.0308 18.3013 51.9349C17.457 53.2642 16.8283 54.9349 16.6487 56.2283C14.9601 56.7492 13.7745 57.1085 13.7565 57.1265C12.9122 57.3959 12.8763 57.4139 12.7685 58.2222C12.6787 58.815 10.4512 76.0782 10.4512 76.0782L29.1514 79.3117L37.2531 77.2997C37.2531 77.2997 33.9478 54.9349 33.9298 54.7912ZM26.888 53.0487C26.4569 53.1744 25.9719 53.3361 25.4329 53.4978C25.415 52.7613 25.3252 51.7194 24.9838 50.8212C26.1156 51.0367 26.6545 52.2942 26.888 53.0487ZM24.4629 53.8032C23.4749 54.1085 22.415 54.4319 21.3372 54.7732C21.6426 53.6235 22.2174 52.4738 22.918 51.7194C23.1875 51.4319 23.5467 51.1266 23.9779 50.9469C24.391 51.7912 24.4629 52.9948 24.4629 53.8032ZM22.451 49.923C22.7923 49.923 23.0797 49.9948 23.3312 50.1565C22.936 50.3541 22.5408 50.6595 22.1815 51.0547C21.2474 52.0607 20.5288 53.6056 20.2414 55.1145C19.3432 55.384 18.481 55.6534 17.6726 55.9049C18.2115 53.5337 20.1875 49.9948 22.451 49.923Z" fill="#95BF47"/>
<path d="M33.6603 54.5394C33.5525 54.5214 31.3969 54.5034 31.3969 54.5034C31.3969 54.5034 29.5826 52.743 29.4029 52.5633C29.3311 52.4915 29.2412 52.4556 29.1514 52.4556V79.3114L37.2531 77.2994C37.2531 77.2994 33.9477 54.9525 33.9298 54.7909C33.8939 54.6292 33.7681 54.5573 33.6603 54.5394Z" fill="#5E8E3E"/>
<path d="M24.6605 58.707L23.7264 62.2279C23.7264 62.2279 22.6845 61.7429 21.427 61.8327C19.5947 61.9405 19.5768 63.0902 19.5947 63.3956C19.7025 64.9764 23.8342 65.3177 24.0677 69.0003C24.2473 71.9104 22.5228 73.8864 20.0438 74.0481C17.0618 74.2277 15.4271 72.4852 15.4271 72.4852L16.0559 69.8086C16.0559 69.8086 17.7085 71.0481 19.0199 70.9763C19.8821 70.9224 20.1875 70.2218 20.1516 69.7188C20.0258 67.671 16.6487 67.7787 16.4331 64.4195C16.2535 61.5812 18.1217 58.707 22.2354 58.4376C23.8521 58.2939 24.6605 58.707 24.6605 58.707Z" fill="white"/>
<path d="M48.2289 66.2162C47.2948 65.7132 46.8098 65.2821 46.8098 64.6893C46.8098 63.9348 47.4745 63.4498 48.5343 63.4498C49.7559 63.4498 50.8337 63.9528 50.8337 63.9528L51.6959 61.3301C51.6959 61.3301 50.9055 60.7193 48.5882 60.7193C45.3547 60.7193 43.1093 62.5696 43.1093 65.1743C43.1093 66.6473 44.1512 67.779 45.5523 68.5874C46.6841 69.2341 47.0793 69.6832 47.0793 70.3658C47.0793 71.0664 46.5224 71.6233 45.4625 71.6233C43.8997 71.6233 42.4267 70.8149 42.4267 70.8149L41.5105 73.4376C41.5105 73.4376 42.8757 74.3538 45.1571 74.3538C48.4804 74.3538 50.8696 72.7191 50.8696 69.773C50.8876 68.1742 49.684 67.0425 48.2289 66.2162ZM61.4862 60.6834C59.8515 60.6834 58.5581 61.4558 57.5701 62.6414L57.5162 62.6234L58.9353 55.1864H55.2348L51.6421 74.1023H55.3426L56.5821 67.6353C57.0671 65.1923 58.3246 63.6833 59.5102 63.6833C60.3365 63.6833 60.6599 64.2402 60.6599 65.0485C60.6599 65.5515 60.606 66.1803 60.4982 66.6832L59.097 74.0843H62.7975L64.2526 66.4318C64.4143 65.6234 64.5221 64.6533 64.5221 64.0246C64.5221 61.9588 63.4083 60.6834 61.4862 60.6834ZM72.8932 60.6834C68.4382 60.6834 65.4921 64.7072 65.4921 69.1982C65.4921 72.0724 67.2705 74.3717 70.5938 74.3717C74.959 74.3717 77.923 70.4556 77.923 65.8569C77.9051 63.2162 76.3422 60.6834 72.8932 60.6834ZM71.0609 71.5335C69.8034 71.5335 69.2645 70.4556 69.2645 69.1263C69.2645 67.0066 70.3603 63.5396 72.3722 63.5396C73.6836 63.5396 74.1147 64.6713 74.1147 65.7671C74.1147 68.0485 73.0189 71.5335 71.0609 71.5335ZM87.372 60.6834C84.875 60.6834 83.4559 62.8749 83.4559 62.8749H83.402L83.6175 60.881H80.3481C80.1865 62.2282 79.899 64.2581 79.5937 65.7851L77.0248 79.3297H80.7254L81.7493 73.8508H81.8212C81.8212 73.8508 82.5756 74.3358 83.9948 74.3358C88.342 74.3358 91.1803 69.8808 91.1803 65.3719C91.1982 62.9109 90.0845 60.6834 87.372 60.6834ZM83.8331 71.5874C82.8631 71.5874 82.3062 71.0484 82.3062 71.0484L82.9169 67.5814C83.3481 65.2821 84.5516 63.7372 85.845 63.7372C86.9768 63.7372 87.3181 64.7791 87.3181 65.7851C87.3181 68.1742 85.8989 71.5874 83.8331 71.5874ZM96.4796 55.384C95.294 55.384 94.3599 56.3182 94.3599 57.5397C94.3599 58.6355 95.0604 59.39 96.1023 59.39H96.1562C97.3059 59.39 98.3119 58.6175 98.3298 57.2343C98.3298 56.1565 97.6113 55.384 96.4796 55.384ZM91.306 74.1023H95.0065L97.5215 60.9887H93.785L91.306 74.1023ZM106.934 60.9528H104.366L104.491 60.342C104.707 59.0846 105.461 57.9529 106.683 57.9529C107.348 57.9529 107.869 58.1325 107.869 58.1325L108.587 55.2403C108.587 55.2403 107.94 54.917 106.575 54.917C105.264 54.917 103.952 55.2942 102.947 56.1565C101.689 57.2343 101.096 58.7792 100.791 60.342L100.683 60.9528H98.9586L98.4197 63.7372H100.144L98.1861 74.1023H101.887L103.845 63.7372H106.396L106.934 60.9528ZM115.845 60.9887C115.845 60.9887 113.527 66.827 112.485 70.0065H112.431C112.36 68.9826 111.515 60.9887 111.515 60.9887H107.635L109.863 73.0424C109.916 73.3119 109.881 73.4735 109.791 73.6532C109.36 74.4795 108.641 75.2879 107.779 75.8807C107.078 76.3837 106.306 76.707 105.677 76.9226L106.701 80.0662C107.455 79.9046 109 79.2938 110.33 78.0543C112.018 76.4735 113.581 74.0304 115.18 70.7071L119.707 60.9887H115.845Z" fill="#101010"/>
</svg>
